<?xml version="1.0" encoding="utf-8"?>
<!-- Generator: Adobe Illustrator 22.0.1, SVG Export Plug-In . SVG Version: 6.00 Build 0)  -->
<svg version="1.1" id="_x2014_ÎÓÈ_x5F_1" xmlns="http://www.w3.org/2000/svg" xmlns:xlink="http://www.w3.org/1999/xlink"
	 x="0px" y="0px" width="262.7px" height="226.7px" viewBox="0 0 262.7 226.7" style="enable-background:new 0 0 262.7 226.7;"
	 xml:space="preserve">
<style type="text/css">
	.st0{opacity:0.5;}
	.st1{fill:#D6D6D6;}
	.st2{fill:#FFFFFF;}
	.st3{fill:#252033;}
	.st4{fill:#3A5580;}
	.st5{fill:#AFAFAF;}
	.st6{fill:#7286A6;}
	.st7{fill:#494065;}
	.st8{opacity:0.3;fill:#103754;}
	.st9{opacity:0.3;}
	.st10{fill:#103754;}
	.st11{fill:#E1F0FC;}
	.st12{fill:#FF9827;}
	.st13{fill:#0D619A;}
	.st14{fill:#47AFE3;}
	.st15{fill:#EEEFF7;}
	.st16{fill:#272236;}
	.st17{fill:#76B5B1;}
	.st18{fill:#231F30;}
	.st19{fill:#A0A8AB;}
	.st20{fill:url(#SVGID_1_);}
	.st21{fill:#DCE7EB;}
	.st22{fill:#6B6387;}
	.st23{fill:#2C273D;}
	.st24{fill:#B8B8B8;}
	.st25{fill:#4FC0FF;}
	.st26{fill:url(#SVGID_2_);}
	.st27{fill:#575757;}
	.st28{fill:#45627B;}
	.st29{fill:#8CD8FF;}
	.st30{fill:#757575;}
	.st31{fill:#696969;}
	.st32{opacity:0.2;fill:#231F20;}
</style>
<g>
	<g>
		<ellipse class="st13" cx="137.8" cy="117.3" rx="72.3" ry="72.3"/>
		<g>
			<path class="st15" d="M161.9,100.9v-7.1c0-9.9-8.1-18-18-18h-12.3c-9.9,0-18,8.1-18,18v7.1c-5,0.2-9,4.3-9,9.4v30.8
				c0,5.2,4.2,9.4,9.4,9.4h47.3c5.2,0,9.4-4.2,9.4-9.4v-30.8C170.9,105.3,166.9,101.2,161.9,100.9z M131.7,80.4H144
				c7.4,0,13.4,6,13.4,13.4v7.1h-39.1v-7.1C118.3,86.4,124.3,80.4,131.7,80.4z"/>
			<path class="st16" d="M142.7,120.1c0-2.7-2.2-4.9-4.9-4.9c-2.7,0-4.9,2.2-4.9,4.9c0,1.9,1.1,3.5,2.7,4.4v9.9h4.4v-9.9
				C141.6,123.6,142.7,122,142.7,120.1z"/>
		</g>
	</g>
	<g>
		<path class="st21" d="M137.8,211.6c-1.7,0-3.3,0-4.9-0.1l0.1-1.2c1.6,0.1,3.2,0.1,4.9,0.1l0,1L137.8,211.6
			C137.8,211.6,137.8,211.6,137.8,211.6z M141.6,211.5l0-1.2c1.6-0.1,3.3-0.2,4.9-0.3l0.1,1.2C144.9,211.4,143.3,211.5,141.6,211.5z
			 M129.2,211.2c-1.6-0.1-3.3-0.3-4.9-0.6l0.2-1.2c1.6,0.2,3.3,0.4,4.9,0.6L129.2,211.2z M150.3,210.8l-0.2-1.2
			c1.6-0.2,3.2-0.5,4.9-0.8l0.2,1.2C153.6,210.3,151.9,210.6,150.3,210.8z M120.5,210c-1.6-0.3-3.3-0.6-4.9-1l0.3-1.2
			c1.6,0.4,3.2,0.7,4.8,1L120.5,210z M158.9,209.2l-0.3-1.2c1.6-0.4,3.2-0.8,4.8-1.2l0.3,1.2C162.1,208.5,160.5,208.9,158.9,209.2z
			 M112.1,208c-1.6-0.5-3.2-0.9-4.8-1.5l0.4-1.2c1.5,0.5,3.1,1,4.7,1.5L112.1,208z M167.3,206.9l-0.4-1.2c1.6-0.5,3.1-1.1,4.6-1.7
			l0.4,1.2C170.4,205.8,168.8,206.4,167.3,206.9z M103.8,205.3c-1.6-0.6-3.1-1.3-4.6-1.9l0.5-1.1c1.5,0.7,3,1.3,4.5,1.9L103.8,205.3
			z M175.4,203.8l-0.5-1.1c1.5-0.7,3-1.4,4.4-2.1l0.6,1.1C178.4,202.5,176.9,203.2,175.4,203.8z M95.8,201.7c-1.5-0.7-3-1.5-4.4-2.3
			l0.6-1.1c1.4,0.8,2.9,1.6,4.3,2.3L95.8,201.7z M183.2,200l-0.6-1.1c1.4-0.8,2.9-1.6,4.2-2.5l0.7,1.1
			C186.1,198.4,184.6,199.2,183.2,200z M88.2,197.5c-1.4-0.9-2.8-1.8-4.2-2.7l0.7-1c1.3,0.9,2.7,1.8,4.1,2.7L88.2,197.5z
			 M190.6,195.5l-0.7-1c1.3-0.9,2.7-1.9,4-2.9l0.7,1C193.4,193.6,192,194.5,190.6,195.5z M81,192.6c-1.3-1-2.6-2-3.9-3.1l0.8-0.9
			c1.2,1.1,2.5,2.1,3.8,3.1L81,192.6z M197.6,190.2l-0.8-1c1.3-1,2.5-2.1,3.7-3.2l0.8,0.9C200.1,188.1,198.9,189.2,197.6,190.2z
			 M74.3,187c-1.2-1.1-2.4-2.3-3.6-3.5l0.9-0.9c1.1,1.2,2.3,2.3,3.5,3.4L74.3,187z M204.1,184.4l-0.9-0.9c1.2-1.1,2.3-2.3,3.4-3.5
			l0.9,0.8C206.4,182.1,205.3,183.3,204.1,184.4z M68.1,180.8c-1.1-1.2-2.2-2.5-3.3-3.8l1-0.8c1,1.3,2.1,2.5,3.2,3.7L68.1,180.8z
			 M210,178l-0.9-0.8c1.1-1.2,2.1-2.5,3.1-3.8l1,0.7C212.1,175.4,211.1,176.8,210,178z M62.6,174.1c-1-1.3-2-2.7-2.9-4l1-0.7
			c0.9,1.3,1.9,2.7,2.9,4L62.6,174.1z M215.3,171.1l-1-0.7c0.9-1.3,1.8-2.7,2.7-4.1l1.1,0.7C217.2,168.3,216.3,169.7,215.3,171.1z
			 M57.6,167c-0.9-1.4-1.7-2.8-2.5-4.3l1.1-0.6c0.8,1.4,1.6,2.9,2.5,4.2L57.6,167z M220,163.7l-1.1-0.6c0.8-1.4,1.6-2.9,2.3-4.3
			l1.1,0.6C221.6,160.8,220.8,162.3,220,163.7z M53.4,159.4c-0.7-1.5-1.4-3-2.1-4.5l1.1-0.5c0.7,1.5,1.3,3,2.1,4.4L53.4,159.4z
			 M223.9,155.9l-1.1-0.5c0.7-1.5,1.3-3,1.9-4.5l1.2,0.4C225.2,152.9,224.6,154.4,223.9,155.9z M49.9,151.4
			c-0.6-1.5-1.2-3.1-1.7-4.7l1.2-0.4c0.5,1.5,1.1,3.1,1.7,4.6L49.9,151.4z M227.1,147.8l-1.2-0.4c0.5-1.5,1-3.1,1.5-4.7l1.2,0.3
			C228.1,144.7,227.6,146.3,227.1,147.8z M47.1,143.2c-0.4-1.6-0.9-3.2-1.2-4.8l1.2-0.3c0.4,1.6,0.8,3.2,1.2,4.8L47.1,143.2z
			 M229.5,139.5l-1.2-0.3c0.4-1.6,0.7-3.2,1-4.8l1.2,0.2C230.3,136.2,229.9,137.8,229.5,139.5z M45.1,134.7
			c-0.3-1.6-0.6-3.3-0.8-4.9l1.2-0.2c0.2,1.6,0.5,3.3,0.8,4.9L45.1,134.7z M231.2,130.9l-1.2-0.2c0.2-1.6,0.4-3.2,0.6-4.9l1.2,0.1
			C231.6,127.6,231.4,129.3,231.2,130.9z M43.9,126.1c-0.2-1.6-0.3-3.3-0.3-5l1.2-0.1c0.1,1.6,0.2,3.3,0.3,4.9L43.9,126.1z
			 M232,122.2l-1.2-0.1c0.1-1.6,0.1-3.3,0.1-4.9V117h1.2v0.2C232.2,118.9,232.1,120.6,232,122.2z M43.5,117.4v-0.1
			c0-1.6,0-3.3,0.1-4.9l1.2,0.1c-0.1,1.6-0.1,3.2-0.1,4.8L43.5,117.4z M230.9,113.4c-0.1-1.6-0.2-3.3-0.3-4.9l1.2-0.1
			c0.2,1.6,0.3,3.3,0.3,5L230.9,113.4z M45.1,108.8l-1.2-0.1c0.1-1.6,0.3-3.3,0.6-4.9l1.2,0.2C45.4,105.5,45.2,107.1,45.1,108.8z
			 M230.1,104.8c-0.2-1.6-0.5-3.2-0.8-4.9l1.2-0.2c0.3,1.6,0.6,3.3,0.8,4.9L230.1,104.8z M46.3,100.3L45,100c0.3-1.6,0.6-3.3,1-4.9
			l1.2,0.3C46.9,97,46.6,98.6,46.3,100.3z M228.6,96.3c-0.4-1.6-0.8-3.2-1.2-4.8l1.2-0.3c0.5,1.6,0.9,3.2,1.2,4.8L228.6,96.3z
			 M48.2,91.9L47,91.5c0.5-1.6,0.9-3.2,1.5-4.8l1.2,0.4C49.2,88.7,48.7,90.3,48.2,91.9z M226.3,88.1c-0.5-1.6-1.1-3.1-1.7-4.6
			l1.2-0.4c0.6,1.5,1.2,3.1,1.7,4.7L226.3,88.1z M50.9,83.7l-1.2-0.4c0.6-1.5,1.2-3.1,1.9-4.6l1.1,0.5
			C52.2,80.7,51.5,82.2,50.9,83.7z M223.2,80c-0.7-1.5-1.4-3-2.1-4.4l1.1-0.6c0.7,1.5,1.4,3,2.1,4.5L223.2,80z M54.4,75.8l-1.1-0.6
			c0.7-1.5,1.5-3,2.3-4.4l1.1,0.6C55.9,72.9,55.1,74.4,54.4,75.8z M219.4,72.3c-0.8-1.4-1.6-2.8-2.5-4.2l1.1-0.7
			c0.9,1.4,1.7,2.8,2.5,4.3L219.4,72.3z M58.6,68.3l-1.1-0.7c0.9-1.4,1.8-2.8,2.7-4.2l1,0.7C60.4,65.5,59.5,66.9,58.6,68.3z
			 M214.9,65c-0.9-1.3-1.9-2.7-2.9-4l1-0.7c1,1.3,2,2.7,2.9,4L214.9,65z M63.5,61.2l-1-0.7c1-1.3,2-2.6,3.1-3.9l0.9,0.8
			C65.5,58.6,64.5,59.9,63.5,61.2z M209.8,58.1c-1-1.3-2.1-2.5-3.2-3.7l0.9-0.8c1.1,1.2,2.2,2.5,3.3,3.8L209.8,58.1z M69,54.6
			L68,53.8c1.1-1.2,2.3-2.4,3.4-3.6l0.9,0.9C71.2,52.2,70.1,53.4,69,54.6z M204,51.8c-1.1-1.2-2.3-2.3-3.5-3.4l0.8-0.9
			c1.2,1.1,2.4,2.3,3.6,3.4L204,51.8z M75,48.5l-0.8-0.9c1.2-1.1,2.5-2.2,3.8-3.3l0.8,1C77.5,46.3,76.2,47.4,75,48.5z M197.7,45.9
			c-1.3-1.1-2.6-2.1-3.8-3.1l0.7-1c1.3,1,2.6,2,3.9,3.1L197.7,45.9z M81.6,43l-0.7-1c1.3-1,2.7-2,4-2.9l0.7,1
			C84.3,41.1,82.9,42,81.6,43z M190.8,40.7c-1.3-0.9-2.7-1.8-4.1-2.7l0.7-1.1c1.4,0.9,2.8,1.8,4.2,2.7L190.8,40.7z M88.7,38.1
			l-0.7-1.1c1.4-0.9,2.9-1.7,4.3-2.5l0.6,1.1C91.5,36.4,90.1,37.3,88.7,38.1z M183.5,36.1c-1.4-0.8-2.9-1.6-4.3-2.3l0.6-1.1
			c1.5,0.7,2.9,1.5,4.4,2.3L183.5,36.1z M96.2,33.9l-0.6-1.1c1.5-0.7,3-1.5,4.5-2.1l0.5,1.1C99.2,32.5,97.7,33.2,96.2,33.9z
			 M175.9,32.2c-1.5-0.7-3-1.3-4.5-1.9l0.4-1.2c1.5,0.6,3.1,1.2,4.6,1.9L175.9,32.2z M104,30.5l-0.4-1.2c1.5-0.6,3.1-1.2,4.7-1.7
			l0.4,1.2C107.1,29.3,105.6,29.9,104,30.5z M167.8,29.1c-1.6-0.5-3.1-1-4.7-1.5l0.3-1.2c1.6,0.4,3.2,0.9,4.8,1.5L167.8,29.1z
			 M112.2,27.7l-0.3-1.2c1.6-0.5,3.2-0.9,4.8-1.2l0.3,1.2C115.4,26.9,113.8,27.3,112.2,27.7z M159.6,26.7c-1.6-0.4-3.2-0.7-4.8-1
			l0.2-1.2c1.6,0.3,3.3,0.6,4.9,1L159.6,26.7z M120.6,25.7l-0.2-1.2c1.6-0.3,3.3-0.6,4.9-0.8l0.2,1.2
			C123.8,25.2,122.2,25.4,120.6,25.7z M151.1,25.1c-1.6-0.2-3.3-0.4-4.9-0.6l0.1-1.2c1.6,0.1,3.3,0.3,4.9,0.6L151.1,25.1z
			 M129.1,24.5l-0.1-1.2c1.6-0.2,3.3-0.3,5-0.3l0.1,1.2C132.3,24.3,130.7,24.4,129.1,24.5z M142.6,24.3c-1.6-0.1-3.2-0.1-4.8-0.1
			h-0.2v-1.2h0.2c1.6,0,3.2,0,4.8,0.1L142.6,24.3z"/>
	</g>
	<g>
		<circle class="st12" cx="113.9" cy="27.2" r="23"/>
		<g>
			<g>
				<g>
					<path class="st13" d="M125.2,16.1c0,1.3-1,2.3-2.3,2.3h-18.1c-1.3,0-2.3-1-2.3-2.3v-1.6c0-1.3,1-2.3,2.3-2.3H123
						c1.3,0,2.3,1,2.3,2.3V16.1z"/>
					<path class="st2" d="M106.1,15.3c0,0.5-0.4,0.9-0.9,0.9c-0.5,0-0.9-0.4-0.9-0.9c0-0.5,0.4-0.9,0.9-0.9
						C105.7,14.4,106.1,14.8,106.1,15.3z"/>
				</g>
				<g>
					<path class="st13" d="M125.2,22.9c0,1.3-1,2.3-2.3,2.3h-18.1c-1.3,0-2.3-1-2.3-2.3v-1.6c0-1.3,1-2.3,2.3-2.3H123
						c1.3,0,2.3,1,2.3,2.3V22.9z"/>
					<path class="st2" d="M106.1,22c0,0.5-0.4,0.9-0.9,0.9c-0.5,0-0.9-0.4-0.9-0.9c0-0.5,0.4-0.9,0.9-0.9
						C105.7,21.1,106.1,21.5,106.1,22z"/>
				</g>
				<g>
					<path class="st13" d="M125.2,29.6c0,1.3-1,2.3-2.3,2.3h-18.1c-1.3,0-2.3-1-2.3-2.3v-1.6c0-1.3,1-2.3,2.3-2.3H123
						c1.3,0,2.3,1,2.3,2.3V29.6z"/>
					<path class="st2" d="M106.1,28.8c0,0.5-0.4,0.9-0.9,0.9c-0.5,0-0.9-0.4-0.9-0.9c0-0.5,0.4-0.9,0.9-0.9
						C105.7,27.8,106.1,28.3,106.1,28.8z"/>
				</g>
			</g>
			<rect x="112.6" y="32.3" class="st13" width="2.6" height="6.9"/>
			<rect x="110" y="39.6" class="st13" width="7.8" height="2.6"/>
			<rect x="99" y="40.2" class="st13" width="30" height="1.4"/>
		</g>
		<g>
			<path class="st13" d="M121,22.4c0,3.6-2.9,6.5-6.5,6.5c-3.6,0-6.5-2.9-6.5-6.5s2.9-6.5,6.5-6.5C118.1,15.9,121,18.8,121,22.4z"/>
			<g>
				<path class="st15" d="M116.7,20.9v-0.6c0-0.9-0.7-1.6-1.6-1.6H114c-0.9,0-1.6,0.7-1.6,1.6v0.6c-0.4,0-0.8,0.4-0.8,0.8v2.8
					c0,0.5,0.4,0.8,0.8,0.8h4.2c0.5,0,0.8-0.4,0.8-0.8v-2.8C117.5,21.3,117.1,20.9,116.7,20.9z M114,19.1h1.1c0.7,0,1.2,0.5,1.2,1.2
					v0.6h-3.5v-0.6C112.8,19.6,113.3,19.1,114,19.1z"/>
				<path class="st16" d="M114.9,22.6c0-0.2-0.2-0.4-0.4-0.4c-0.2,0-0.4,0.2-0.4,0.4c0,0.2,0.1,0.3,0.2,0.4v0.9h0.4V23
					C114.8,22.9,114.9,22.8,114.9,22.6z"/>
			</g>
		</g>
	</g>
	<g>
		<g>
			<g>
				<path class="st18" d="M59.4,218.7c-31-22.9-51.4-58.9-54.5-96.2l-1.1-10l9.6,0.1c0.7,0,1.5,0,2.2,0c22.4,0,31-4.2,41.8-20.3
					l7.1-10.6l7.1,10.6c10.8,16.1,19.4,20.3,41.8,20.3c0.7,0,1.5,0,2.2,0l9.6-0.1l-1.1,10c-3.1,37.3-23.5,73.3-54.5,96.2l-5.1,3.8
					L59.4,218.7z"/>
				<path class="st14" d="M64.5,97.1c-13.1,19.5-24.8,24.4-51.2,24.1l0.1,0.5c2.6,31.2,18.7,66.2,51.1,90.1
					c32.4-24,48.5-58.9,51.1-90.1l0.1-0.5C89.3,121.5,77.5,116.6,64.5,97.1z"/>
				<path class="st2" d="M64,97.7c-12.9,19-24.7,23.8-50.7,23.5l0.1,0.5c0.7,8.8,2.5,17.8,5.5,26.9H64V97.7z"/>
				<path class="st2" d="M63.6,148.6v62.6c0.3,0.2,0.6,0.4,0.9,0.7c23.3-17.2,38.2-40.2,45.7-63.3H63.6z"/>
			</g>
		</g>
	</g>
	<g>
		<g>
			<path class="st18" d="M252.7,85.7V55.8c0-0.9-0.7-1.6-1.6-1.6H201c-0.9,0-1.6,0.7-1.6,1.6v29.9H252.7z"/>
			<rect x="201.4" y="56" class="st17" width="48.6" height="27.8"/>
			<path class="st19" d="M218.5,97.3L218.5,97.3c0-0.3,0.1-0.4,0.4-0.4l15.3-0.1c0.3,0.1,0.4,0.2,0.4,0.4l0,0
				C234.6,98.4,218.5,98.4,218.5,97.3z"/>
			<linearGradient id="SVGID_1_" gradientUnits="userSpaceOnUse" x1="226.5218" y1="96.2076" x2="226.5218" y2="91.456">
				<stop  offset="0" style="stop-color:#D5E0E3"/>
				<stop  offset="0.2884" style="stop-color:#D5E0E3"/>
				<stop  offset="0.4257" style="stop-color:#FFFFFF"/>
				<stop  offset="0.9809" style="stop-color:#D5E0E3"/>
			</linearGradient>
			<path class="st20" d="M231.7,94.5c-0.3-0.4-0.4-2.9-0.4-3.5h-9.4c0,0.6-0.2,3.1-0.4,3.5c-0.3,0.4-2.8,2.3-2.8,2.5
				c0,0.3,4,0.4,8,0.4c4,0,8-0.1,8-0.4C234.5,96.9,232,95,231.7,94.5z"/>
			<path class="st21" d="M199.4,85.7v3.7c0,0.9,1.2,1.8,2.1,1.8h49.8c0.9,0,1.4-0.9,1.4-1.8v-3.7H199.4z"/>
		</g>
		<g>
			<g>
				<rect x="220.3" y="64.2" class="st2" width="20.6" height="3.7"/>
				<g>
					<g>
						<path class="st7" d="M220.7,61.3h0.2v1.5h0.7V63h-1V61.3z"/>
						<path class="st7" d="M222.4,61.7c0.3,0,0.6,0.2,0.6,0.7c0,0.4-0.3,0.7-0.6,0.7c-0.3,0-0.6-0.2-0.6-0.7
							C221.9,62,222.1,61.7,222.4,61.7z M222.4,62.9c0.2,0,0.4-0.2,0.4-0.5c0-0.3-0.1-0.5-0.4-0.5c-0.2,0-0.4,0.2-0.4,0.5
							C222.1,62.7,222.2,62.9,222.4,62.9z"/>
						<path class="st7" d="M223.4,63L223.4,63c-0.1,0-0.1-0.1-0.1-0.2c0-0.1,0.1-0.2,0.1-0.2v0c-0.1-0.1-0.2-0.2-0.2-0.3
							c0-0.3,0.2-0.5,0.5-0.5c0.1,0,0.1,0,0.2,0h0.4v0.2h-0.3c0.1,0.1,0.1,0.2,0.1,0.3c0,0.3-0.2,0.4-0.5,0.4c-0.1,0-0.1,0-0.2,0
							c0,0-0.1,0.1-0.1,0.2c0,0.1,0.1,0.1,0.2,0.1h0.2c0.3,0,0.4,0.1,0.4,0.3c0,0.2-0.2,0.4-0.6,0.4c-0.3,0-0.5-0.1-0.5-0.3
							C223.3,63.1,223.3,63,223.4,63z M223.8,63.4c0.2,0,0.4-0.1,0.4-0.3c0-0.1-0.1-0.2-0.3-0.2h-0.2c0,0-0.1,0-0.2,0
							c-0.1,0.1-0.1,0.1-0.1,0.2C223.4,63.4,223.6,63.4,223.8,63.4z M224.1,62.2c0-0.2-0.1-0.3-0.3-0.3c-0.2,0-0.3,0.1-0.3,0.3
							c0,0.2,0.1,0.3,0.3,0.3C223.9,62.5,224.1,62.3,224.1,62.2z"/>
						<path class="st7" d="M224.6,61.3c0-0.1,0.1-0.1,0.1-0.1c0.1,0,0.1,0.1,0.1,0.1c0,0.1-0.1,0.1-0.1,0.1
							C224.7,61.5,224.6,61.4,224.6,61.3z M224.7,61.7h0.2V63h-0.2V61.7z"/>
						<path class="st7" d="M225.3,61.7h0.2l0,0.2h0c0.1-0.1,0.3-0.2,0.4-0.2c0.3,0,0.4,0.2,0.4,0.5V63h-0.2v-0.8
							c0-0.2-0.1-0.3-0.2-0.3c-0.1,0-0.2,0.1-0.3,0.2V63h-0.2V61.7z"/>
					</g>
				</g>
				<rect x="220.3" y="73.1" class="st2" width="20.6" height="3.7"/>
				<g>
					<g>
						<path class="st7" d="M220.7,70.1h0.5c0.4,0,0.6,0.1,0.6,0.5c0,0.4-0.3,0.5-0.6,0.5H221v0.7h-0.2V70.1z M221.2,71
							c0.3,0,0.4-0.1,0.4-0.3c0-0.2-0.1-0.3-0.4-0.3H221V71H221.2z"/>
						<path class="st7" d="M222.8,71c0-0.2-0.1-0.3-0.3-0.3c-0.1,0-0.3,0.1-0.4,0.1l-0.1-0.1c0.1-0.1,0.3-0.2,0.5-0.2
							c0.3,0,0.4,0.2,0.4,0.5v0.8h-0.2l0-0.2h0c-0.1,0.1-0.3,0.2-0.4,0.2c-0.2,0-0.4-0.1-0.4-0.4C222,71.2,222.3,71.1,222.8,71z
							 M222.5,71.7c0.1,0,0.2-0.1,0.3-0.2v-0.4c-0.4,0.1-0.6,0.2-0.6,0.3C222.2,71.6,222.3,71.7,222.5,71.7z"/>
						<path class="st7" d="M223.4,71.5c0.1,0.1,0.2,0.2,0.4,0.2c0.2,0,0.2-0.1,0.2-0.2c0-0.1-0.1-0.2-0.3-0.2
							c-0.2-0.1-0.4-0.2-0.4-0.4c0-0.2,0.2-0.4,0.4-0.4c0.2,0,0.3,0.1,0.4,0.1l-0.1,0.1c-0.1-0.1-0.2-0.1-0.3-0.1
							c-0.2,0-0.2,0.1-0.2,0.2c0,0.1,0.1,0.2,0.3,0.2c0.2,0.1,0.4,0.1,0.4,0.4c0,0.2-0.2,0.4-0.5,0.4c-0.2,0-0.4-0.1-0.5-0.2
							L223.4,71.5z"/>
						<path class="st7" d="M224.5,71.5c0.1,0.1,0.2,0.2,0.4,0.2c0.2,0,0.2-0.1,0.2-0.2c0-0.1-0.2-0.2-0.3-0.2
							c-0.2-0.1-0.4-0.2-0.4-0.4c0-0.2,0.2-0.4,0.4-0.4c0.2,0,0.3,0.1,0.4,0.1l-0.1,0.1c-0.1-0.1-0.2-0.1-0.3-0.1
							c-0.2,0-0.2,0.1-0.2,0.2c0,0.1,0.1,0.2,0.3,0.2c0.2,0.1,0.4,0.1,0.4,0.4c0,0.2-0.2,0.4-0.5,0.4c-0.2,0-0.4-0.1-0.5-0.2
							L224.5,71.5z"/>
						<path class="st7" d="M225.5,70.6h0.2l0.2,0.7c0,0.1,0.1,0.2,0.1,0.4h0c0-0.1,0.1-0.2,0.1-0.4l0.2-0.7h0.2l0.2,0.7
							c0,0.1,0.1,0.2,0.1,0.4h0c0-0.1,0.1-0.2,0.1-0.4l0.2-0.7h0.2l-0.3,1.3h-0.3l-0.2-0.7c0-0.1-0.1-0.2-0.1-0.4h0
							c0,0.1-0.1,0.2-0.1,0.4l-0.2,0.7h-0.3L225.5,70.6z"/>
						<path class="st7" d="M228,70.5c0.3,0,0.6,0.2,0.6,0.7c0,0.4-0.3,0.7-0.6,0.7c-0.3,0-0.6-0.2-0.6-0.7
							C227.4,70.8,227.6,70.5,228,70.5z M228,71.7c0.2,0,0.4-0.2,0.4-0.5c0-0.3-0.1-0.5-0.4-0.5c-0.2,0-0.4,0.2-0.4,0.5
							C227.6,71.5,227.7,71.7,228,71.7z"/>
						<path class="st7" d="M228.9,70.6h0.2l0,0.2h0c0.1-0.2,0.2-0.3,0.4-0.3c0.1,0,0.1,0,0.1,0l0,0.2c0,0-0.1,0-0.1,0
							c-0.1,0-0.2,0.1-0.3,0.3v0.8h-0.2V70.6z"/>
						<path class="st7" d="M230.2,70.5c0.1,0,0.2,0.1,0.4,0.1l0-0.2V70h0.2v1.9h-0.2l0-0.1h0c-0.1,0.1-0.2,0.2-0.4,0.2
							c-0.3,0-0.5-0.2-0.5-0.7C229.7,70.8,229.9,70.5,230.2,70.5z M230.2,71.7c0.1,0,0.2-0.1,0.3-0.2v-0.7c-0.1-0.1-0.2-0.1-0.3-0.1
							c-0.2,0-0.4,0.2-0.4,0.5C229.9,71.5,230,71.7,230.2,71.7z"/>
					</g>
				</g>
			</g>
			<g>
				<path class="st14" d="M215.9,69c0,2.4-1.9,4.3-4.3,4.3c-2.4,0-4.3-1.9-4.3-4.3c0-2.4,1.9-4.3,4.3-4.3
					C214,64.7,215.9,66.6,215.9,69z"/>
				<g>
					<path class="st22" d="M213,68h-2.8c-0.1,0-0.2,0.1-0.2,0.2v0.1h3.1v-0.1C213.1,68.1,213.1,68,213,68z"/>
					<g>
						<path class="st15" d="M212.2,69.5H211c-0.3,0-0.6-0.3-0.6-0.6v-1.7c0-0.3,0.3-0.6,0.6-0.6h1.3c0.3,0,0.6,0.3,0.6,0.6v1.7
							C212.8,69.2,212.5,69.5,212.2,69.5z M211,67c-0.1,0-0.2,0.1-0.2,0.2v1.7c0,0.1,0.1,0.2,0.2,0.2h1.3c0.1,0,0.2-0.1,0.2-0.2
							v-1.7c0-0.1-0.1-0.2-0.2-0.2H211z"/>
					</g>
					<path class="st15" d="M210,70.5c0,0.1,0.1,0.2,0.2,0.2h2.8c0.1,0,0.2-0.1,0.2-0.2v-2.3H210V70.5z"/>
					<path class="st23" d="M211.9,69.1c0-0.2-0.1-0.3-0.3-0.3c-0.2,0-0.3,0.1-0.3,0.3c0,0.1,0,0.2,0.1,0.2l-0.1,0.7h0.6l-0.1-0.7
						C211.9,69.2,211.9,69.2,211.9,69.1z"/>
				</g>
			</g>
		</g>
	</g>
	<g>
		<g>
			<g>
				<g>
					<path class="st15" d="M207.3,176.4v42.3c0,1.4-1.2,2.5-2.7,2.5h-34.8c-1.5,0-2.7-1.1-2.7-2.5v-42.3c0-1.4,1.2-2.5,2.7-2.5h34.8
						C206.1,173.9,207.3,175,207.3,176.4z"/>
					
						<rect x="167.3" y="181.1" transform="matrix(-1.836970e-16 1 -1 -1.836970e-16 384.6836 10.3483)" class="st27" width="39.6" height="32.9"/>
					<path class="st28" d="M187.6,176.1c0,0.2-0.2,0.4-0.5,0.4s-0.5-0.2-0.5-0.4c0-0.2,0.2-0.4,0.5-0.4S187.6,175.8,187.6,176.1z"/>
				</g>
				<g>
					<rect x="174.9" y="196" class="st29" width="25.6" height="12.4"/>
					<rect x="174.9" y="186.6" class="st25" width="8.5" height="9.4"/>
					<rect x="183.4" y="186.6" class="st30" width="8.5" height="9.4"/>
					<rect x="191.9" y="186.6" class="st31" width="8.5" height="9.4"/>
				</g>
				<rect x="174.9" y="180.9" class="st30" width="25.6" height="2.4"/>
				<rect x="174.9" y="211.9" class="st30" width="25.6" height="2.4"/>
			</g>
			<path class="st32" d="M187.2,173.9v47.2h-17.4c-1.5,0-2.7-1.1-2.7-2.5v-42.3c0-1.4,1.2-2.5,2.7-2.5H187.2z"/>
		</g>
	</g>
</g>
</svg>
